<svg width="54" height="53" viewBox="0 0 54 53" fill="none" xmlns="http://www.w3.org/2000/svg">
<path d="M52.196 41.4149L48.39 37.6089V12.6229C48.3935 12.5194 48.3758 12.4162 48.3379 12.3197C48.3001 12.2232 48.2429 12.1355 48.17 12.062C48.0964 11.989 48.0087 11.9318 47.9122 11.894C47.8157 11.8561 47.7125 11.8384 47.609 11.8419H38.161L33.505 6.76691H22.672L20.237 9.45593L17.524 6.74292L21.013 2.96094H35.165L39.86 8.03595H47.61C48.2147 8.02388 48.8155 8.13584 49.3754 8.36493C49.9352 8.59402 50.4422 8.93535 50.865 9.36792C51.2975 9.79073 51.6389 10.2977 51.868 10.8575C52.0971 11.4174 52.209 12.0182 52.197 12.6229L52.196 41.4149ZM8.56796 46.0999C7.9632 46.112 7.36237 46 6.80254 45.7709C6.24272 45.5418 5.73577 45.2005 5.31296 44.7679C4.88039 44.3451 4.53903 43.8381 4.30994 43.2783C4.08085 42.7185 3.96889 42.1177 3.98096 41.5129V12.6229C3.96889 12.0182 4.08085 11.4174 4.30994 10.8575C4.53903 10.2977 4.88039 9.79073 5.31296 9.36792C5.73577 8.93535 6.24272 8.59402 6.80254 8.36493C7.36237 8.13584 7.9632 8.02388 8.56796 8.03595H11.633L15.439 11.8419H8.56796C8.46439 11.8384 8.3612 11.8561 8.26472 11.894C8.16825 11.9318 8.08053 11.989 8.00696 12.062C7.93398 12.1355 7.87682 12.2232 7.83899 12.3197C7.80115 12.4162 7.78345 12.5194 7.78696 12.6229V41.5129C7.78345 41.6165 7.80115 41.7197 7.83899 41.8162C7.87682 41.9126 7.93398 42.0003 8.00696 42.0739C8.08053 42.1469 8.16825 42.204 8.26472 42.2419C8.3612 42.2797 8.46439 42.2975 8.56796 42.2939H45.891L49.697 46.0999H8.56796ZM36.643 33.046C35.6921 34.3946 34.444 35.5066 32.995 36.296C31.4902 37.1142 29.8006 37.5325 28.088 37.5109C26.7114 37.5373 25.3441 37.2814 24.0704 36.7589C22.7966 36.2363 21.6434 35.4583 20.682 34.4729C19.6965 33.5115 18.9185 32.3583 18.396 31.0845C17.8735 29.8108 17.6176 28.4435 17.644 27.067C17.6224 25.3543 18.0407 23.6647 18.859 22.1599C19.6484 20.7109 20.7603 19.4627 22.109 18.5119L24.861 21.2639C23.8397 21.8205 22.9842 22.6379 22.382 23.6329C21.7549 24.667 21.4319 25.8567 21.45 27.0659C21.4293 27.9422 21.5884 28.8135 21.9174 29.626C22.2464 30.4384 22.7384 31.1749 23.363 31.7899C23.978 32.4145 24.7145 32.9065 25.5269 33.2355C26.3394 33.5645 27.2106 33.7236 28.087 33.7029C29.2961 33.721 30.4859 33.398 31.52 32.7709C32.515 32.1687 33.3325 31.3133 33.889 30.2919L36.641 33.0439L36.643 33.046ZM35.501 19.6549C36.4278 20.5557 37.1668 21.6315 37.675 22.8199C38.2047 24.0639 38.4873 25.399 38.507 26.7509V27.2189C38.5069 27.3757 38.4939 27.5323 38.468 27.687L27.468 16.687C27.6226 16.6611 27.7792 16.648 27.936 16.6479H28.404C29.7559 16.6677 31.091 16.9502 32.335 17.4799C33.5236 17.9874 34.5997 18.7256 35.501 19.6519V19.6549ZM50.401 52.2299L0.886963 2.7149L3.59996 0.00195312L53.114 49.515L50.401 52.2279V52.2299Z" fill="url(#paint0_linear_13_1795)"/>
<path d="M52.196 41.4149L48.39 37.6089V12.6229C48.3935 12.5194 48.3758 12.4162 48.3379 12.3197C48.3001 12.2232 48.2429 12.1355 48.17 12.062C48.0964 11.989 48.0087 11.9318 47.9122 11.894C47.8157 11.8561 47.7125 11.8384 47.609 11.8419H38.161L33.505 6.76691H22.672L20.237 9.45593L17.524 6.74292L21.013 2.96094H35.165L39.86 8.03595H47.61C48.2147 8.02388 48.8155 8.13584 49.3754 8.36493C49.9352 8.59402 50.4422 8.93535 50.865 9.36792C51.2975 9.79073 51.6389 10.2977 51.868 10.8575C52.0971 11.4174 52.209 12.0182 52.197 12.6229L52.196 41.4149ZM8.56796 46.0999C7.9632 46.112 7.36237 46 6.80254 45.7709C6.24272 45.5418 5.73577 45.2005 5.31296 44.7679C4.88039 44.3451 4.53903 43.8381 4.30994 43.2783C4.08085 42.7185 3.96889 42.1177 3.98096 41.5129V12.6229C3.96889 12.0182 4.08085 11.4174 4.30994 10.8575C4.53903 10.2977 4.88039 9.79073 5.31296 9.36792C5.73577 8.93535 6.24272 8.59402 6.80254 8.36493C7.36237 8.13584 7.9632 8.02388 8.56796 8.03595H11.633L15.439 11.8419H8.56796C8.46439 11.8384 8.3612 11.8561 8.26472 11.894C8.16825 11.9318 8.08053 11.989 8.00696 12.062C7.93398 12.1355 7.87682 12.2232 7.83899 12.3197C7.80115 12.4162 7.78345 12.5194 7.78696 12.6229V41.5129C7.78345 41.6165 7.80115 41.7197 7.83899 41.8162C7.87682 41.9126 7.93398 42.0003 8.00696 42.0739C8.08053 42.1469 8.16825 42.204 8.26472 42.2419C8.3612 42.2797 8.46439 42.2975 8.56796 42.2939H45.891L49.697 46.0999H8.56796ZM36.643 33.046C35.6921 34.3946 34.444 35.5066 32.995 36.296C31.4902 37.1142 29.8006 37.5325 28.088 37.5109C26.7114 37.5373 25.3441 37.2814 24.0704 36.7589C22.7966 36.2363 21.6434 35.4583 20.682 34.4729C19.6965 33.5115 18.9185 32.3583 18.396 31.0845C17.8735 29.8108 17.6176 28.4435 17.644 27.067C17.6224 25.3543 18.0407 23.6647 18.859 22.1599C19.6484 20.7109 20.7603 19.4627 22.109 18.5119L24.861 21.2639C23.8397 21.8205 22.9842 22.6379 22.382 23.6329C21.7549 24.667 21.4319 25.8567 21.45 27.0659C21.4293 27.9422 21.5884 28.8135 21.9174 29.626C22.2464 30.4384 22.7384 31.1749 23.363 31.7899C23.978 32.4145 24.7145 32.9065 25.5269 33.2355C26.3394 33.5645 27.2106 33.7236 28.087 33.7029C29.2961 33.721 30.4859 33.398 31.52 32.7709C32.515 32.1687 33.3325 31.3133 33.889 30.2919L36.641 33.0439L36.643 33.046ZM35.501 19.6549C36.4278 20.5557 37.1668 21.6315 37.675 22.8199C38.2047 24.0639 38.4873 25.399 38.507 26.7509V27.2189C38.5069 27.3757 38.4939 27.5323 38.468 27.687L27.468 16.687C27.6226 16.6611 27.7792 16.648 27.936 16.6479H28.404C29.7559 16.6677 31.091 16.9502 32.335 17.4799C33.5236 17.9874 34.5997 18.7256 35.501 19.6519V19.6549ZM50.401 52.2299L0.886963 2.7149L3.59996 0.00195312L53.114 49.515L50.401 52.2279V52.2299Z" fill="url(#paint1_linear_13_1795)"/>
<defs>
<linearGradient id="paint0_linear_13_1795" x1="0.886963" y1="26.1159" x2="53.114" y2="26.1159" gradientUnits="userSpaceOnUse">
<stop stop-color="#FF5300"/>
<stop offset="0.16" stop-color="#FB5103"/>
<stop offset="0.31" stop-color="#F04C0F"/>
<stop offset="0.46" stop-color="#DE4322"/>
<stop offset="0.61" stop-color="#C5363C"/>
<stop offset="0.75" stop-color="#A4265F"/>
<stop offset="0.9" stop-color="#7C1389"/>
<stop offset="1" stop-color="#5B03AD"/>
</linearGradient>
<linearGradient id="paint1_linear_13_1795" x1="0.886963" y1="26.1159" x2="53.114" y2="26.1159" gradientUnits="userSpaceOnUse">
<stop stop-color="#004C92"/>
<stop offset="1" stop-color="#FF0009"/>
</linearGradient>
</defs>
</svg>
